<svg id="Layer_1" data-name="Layer 1" xmlns="http://www.w3.org/2000/svg" viewBox="0 0 693.27 689.9"><defs><style>.cls-1{fill:#bf3da7;fill-rule:evenodd;}</style></defs><title>wg_logo</title><path class="cls-1" d="M231.2,365.16,153.13,155A345.54,345.54,0,0,1,351.65,55.05Z" transform="translate(-53.36 -55.05)"/><path class="cls-1" d="M568.8,365.16,448.35,55.05A345.54,345.54,0,0,1,646.87,155Z" transform="translate(-53.36 -55.05)"/><path class="cls-1" d="M746.64,398.31c0,191.43-155.2,346.64-346.64,346.64S53.36,589.75,53.36,398.31a344.61,344.61,0,0,1,36-153.91l.18.18L231.2,609.31,400,172.24,568.8,609.31,710.47,244.59l.18-.18A344.61,344.61,0,0,1,746.64,398.31Z" transform="translate(-53.36 -55.05)"/></svg>